<svg width="89" height="59" viewBox="0 0 89 59" fill="none" xmlns="http://www.w3.org/2000/svg">
<mask id="mask0_669_764" style="mask-type:alpha" maskUnits="userSpaceOnUse" x="0" y="0" width="89" height="59">
<rect width="89" height="59" fill="#D9D9D9"/>
</mask>
<g mask="url(#mask0_669_764)">
<path d="M54.1332 3.22466C62.4556 5.37546 69.8189 10.2495 75.05 17.0703C80.2811 23.8912 83.0791 32.2664 82.9983 40.8619L71.531 40.7541C71.5877 34.7189 69.6231 28.8384 65.9502 24.0492C62.2773 19.2601 57.1073 15.8378 51.2638 14.3277L54.1332 3.22466Z" fill="#EC787D"/>
<path d="M6 40.5C6 34.7207 7.30112 29.0155 9.80685 23.8076C12.3126 18.5997 15.9586 14.0228 20.4746 10.4163C24.9905 6.80979 30.2604 4.26623 35.8935 2.97429C41.5266 1.68235 47.3782 1.67518 53.0145 2.95331L50.4601 14.2173C46.5148 13.3226 42.4186 13.3276 38.4755 14.232C34.5323 15.1364 30.8434 16.9169 27.6822 19.4414C24.521 21.966 21.9688 25.1698 20.2148 28.8153C18.4608 32.4608 17.55 36.4545 17.55 40.5L6 40.5Z" fill="#59C0A4"/>
<rect x="2" y="45" width="15" height="11" rx="5.5" fill="#59C0A4" fill-opacity="0.1"/>
<path d="M6.9 46.69H11.3V47.69H7.95V49.68C8.22 49.32 8.81 49.02 9.46 49.02C11.25 49.02 11.8 50.35 11.8 51.45C11.8 52.9 10.97 54 9.28 54C7.78 54 6.91 53.17 6.74 52.03H7.85C8 52.65 8.52 53.05 9.29 53.05C10.27 53.05 10.71 52.38 10.71 51.48C10.71 50.53 10.24 49.99 9.29 49.99C8.62 49.99 8.17 50.36 7.98 50.9H6.9V46.69Z" fill="#59C0A4"/>
<rect x="37" y="45" width="15" height="11" rx="5.5" fill="#488995" fill-opacity="0.1"/>
<path d="M41.6 50.26C41.6 48.18 42.16 46.58 44.2 46.58C46.24 46.58 46.8 48.18 46.8 50.26C46.8 52.38 46.24 53.98 44.2 53.98C42.16 53.98 41.6 52.38 41.6 50.26ZM45.68 50.26C45.68 48.9 45.53 47.62 44.2 47.62C42.87 47.62 42.72 48.9 42.72 50.26C42.72 51.69 42.87 52.94 44.2 52.94C45.53 52.94 45.68 51.69 45.68 50.26Z" fill="#488995"/>
<rect x="72" y="45" width="15" height="11" rx="5.5" fill="#EC787D" fill-opacity="0.1"/>
<path d="M76.88 46.76H81.23V47.56H77.72V49.84C78.02 49.43 78.66 49.11 79.37 49.11C81.13 49.11 81.69 50.38 81.69 51.5C81.69 52.9 80.91 54.02 79.22 54.02C77.78 54.02 76.91 53.21 76.73 52.04H77.62C77.79 52.8 78.38 53.25 79.23 53.25C80.33 53.25 80.82 52.51 80.82 51.52C80.82 50.49 80.29 49.89 79.24 49.89C78.51 49.89 77.98 50.27 77.74 50.84H76.88V46.76Z" fill="#EC787D"/>
</g>
</svg>
